<?xml version="1.0" encoding="UTF-8"?>
<svg color-interpolation="auto" color-rendering="auto" fill="black" font-family="'Dialog'" font-size="12px" image-rendering="auto" shape-rendering="auto" stroke="black" stroke-linecap="square" stroke-miterlimit="10" text-rendering="auto" viewBox="0 0 1830 582" xmlns="http://www.w3.org/2000/svg">
<g shape-rendering="geometricPrecision" text-rendering="geometricPrecision">
<g transform="matrix(2,0,0,2,1156,-192)" fill="#5469c9" stroke="#5469c9">
<ellipse cx="-514.55" cy="212.55" rx="55" ry="25" clip-path="url(#a)" stroke="none"/>
</g>
<g transform="matrix(2,0,0,2,1156,-192)" fill="#fff" font-family="sans-serif" font-size="13px" font-weight="bold" stroke="#fff" stroke-linecap="butt" stroke-miterlimit="1.45">
<text x="-542.7134" y="217.6587" clip-path="url(#a)" stroke="none" xml:space="preserve">Web App</text>
</g>
<g transform="matrix(2,0,0,2,1156,-192)" fill="#5469c9" stroke="#5469c9" stroke-linecap="butt" stroke-miterlimit="1.45">
<ellipse cx="-514.55" cy="212.55" rx="55" ry="25" clip-path="url(#a)" fill="none"/>
<ellipse cx="-323.01" cy="212.55" rx="85.016" ry="44.328" clip-path="url(#a)" stroke="none" stroke-linecap="square" stroke-miterlimit="10"/>
</g>
<g transform="matrix(2,0,0,2,1156,-192)" fill="#fff" font-family="sans-serif" font-size="13px" font-weight="bold" stroke="none" stroke-linecap="butt" stroke-miterlimit="1.45">
<text x="-382.9632" y="209.6956" clip-path="url(#a)" xml:space="preserve">Confront username</text>
<text x="-366.7164" y="225.6218" clip-path="url(#a)" xml:space="preserve">and password</text>
</g>
<g transform="matrix(2,0,0,2,1156,-192)" fill="#5469c9" stroke="#5469c9" stroke-linecap="butt" stroke-miterlimit="1.45">
<ellipse cx="-323.01" cy="212.55" rx="85.016" ry="44.328" clip-path="url(#a)" fill="none"/>
<ellipse cx="-101.46" cy="212.55" rx="85.016" ry="44.328" clip-path="url(#a)" stroke="none" stroke-linecap="square" stroke-miterlimit="10"/>
</g>
<g transform="matrix(2,0,0,2,1156,-192)" fill="#fff" font-family="sans-serif" font-size="13px" font-weight="bold" stroke="#fff" stroke-linecap="butt" stroke-miterlimit="1.45">
<text x="-162.1348" y="217.6587" clip-path="url(#a)" stroke="none" xml:space="preserve">User authentication</text>
</g>
<g transform="matrix(2,0,0,2,1156,-192)" fill="#5469c9" stroke="#5469c9" stroke-linecap="butt" stroke-miterlimit="1.45">
<ellipse cx="-101.46" cy="212.55" rx="85.016" ry="44.328" clip-path="url(#a)" fill="none"/>
<ellipse cx="59.892" cy="136.31" rx="66.776" ry="31.912" clip-path="url(#a)" stroke="none" stroke-linecap="square" stroke-miterlimit="10"/>
</g>
<g transform="matrix(2,0,0,2,1156,-192)" fill="#fff" font-family="sans-serif" font-size="13px" font-weight="bold" stroke="#fff" stroke-linecap="butt" stroke-miterlimit="1.45">
<text x="43.997" y="141.4187" clip-path="url(#a)" stroke="none" xml:space="preserve">Read</text>
</g>
<g transform="matrix(2,0,0,2,1156,-192)" fill="#5469c9" stroke="#5469c9" stroke-linecap="butt" stroke-miterlimit="1.45">
<ellipse cx="59.892" cy="136.31" rx="66.776" ry="31.912" clip-path="url(#a)" fill="none"/>
<ellipse cx="59.892" cy="288.79" rx="66.776" ry="31.912" clip-path="url(#a)" stroke="none" stroke-linecap="square" stroke-miterlimit="10"/>
</g>
<g transform="matrix(2,0,0,2,1156,-192)" fill="#fff" font-family="sans-serif" font-size="13px" font-weight="bold" stroke="#fff" stroke-linecap="butt" stroke-miterlimit="1.45">
<text x="12.5792" y="293.8987" clip-path="url(#a)" stroke="none" xml:space="preserve">Read and Write</text>
</g>
<g transform="matrix(2,0,0,2,1156,-192)" fill="#5469c9" stroke="#5469c9" stroke-linecap="butt" stroke-miterlimit="1.45">
<ellipse cx="59.892" cy="288.79" rx="66.776" ry="31.912" clip-path="url(#a)" fill="none"/>
<ellipse cx="197.62" cy="227.78" rx="61.4" ry="29.096" clip-path="url(#a)" stroke="none" stroke-linecap="square" stroke-miterlimit="10"/>
</g>
<g transform="matrix(2,0,0,2,1156,-192)" fill="#fff" font-family="sans-serif" font-size="13px" font-weight="bold" stroke="#fff" stroke-linecap="butt" stroke-miterlimit="1.45">
<text x="157.8788" y="232.8907" clip-path="url(#a)" stroke="none" xml:space="preserve">Receive data</text>
</g>
<g transform="matrix(2,0,0,2,1156,-192)" fill="#5469c9" stroke="#5469c9" stroke-linecap="butt" stroke-miterlimit="1.45">
<ellipse cx="197.62" cy="227.78" rx="61.4" ry="29.096" clip-path="url(#a)" fill="none"/>
<ellipse cx="197.62" cy="349.8" rx="61.4" ry="29.096" clip-path="url(#a)" stroke="none" stroke-linecap="square" stroke-miterlimit="10"/>
</g>
<g transform="matrix(2,0,0,2,1156,-192)" fill="#fff" font-family="sans-serif" font-size="13px" font-weight="bold" stroke="#fff" stroke-linecap="butt" stroke-miterlimit="1.45">
<text x="161.5128" y="354.9067" clip-path="url(#a)" stroke="none" xml:space="preserve">Modify data</text>
</g>
<g transform="matrix(2,0,0,2,1156,-192)" fill="#5469c9" stroke="#5469c9" stroke-linecap="butt" stroke-miterlimit="1.45">
<ellipse cx="197.62" cy="349.8" rx="61.4" ry="29.096" clip-path="url(#a)" fill="none"/>
</g>
<g transform="matrix(2 0 0 2 1734 337.97)">
<g clip-path="url(#l)">
<svg width="40px" height="48px" alignment-baseline="auto" clip="auto" clip-path="none" color="rgb(0, 0, 0)" color-interpolation="srgb" color-interpolation-filters="linearrgb" color-profile="auto" color-rendering="auto" cursor="auto" dominant-baseline="auto" enable-background="new 0 0 40 48" fill="rgb(0, 0, 0)" flood-color="rgb(0, 0, 0)" font-family='"Arial","Helvetica",sans-serif' font-size="12" font-weight="400" glyph-orientation-vertical="auto" image-rendering="auto" kerning="auto" lighting-color="rgb(255, 255, 255)" overflow="hidden" pointer-events="visiblepainted" shape-rendering="auto" stop-color="rgb(0, 0, 0)" stroke="none" stroke-linecap="butt" stroke-miterlimit="4" text-rendering="auto" src="none" version="1.1" viewBox="0 0 40 48" xml:space="preserve">
<defs>
<clipPath id="a"><path d="m-578 96h915v291h-915v-291z"/></clipPath><clipPath id="l"><path d="m-867.02-168.99h915v291h-915v-291z"/></clipPath><clipPath id="k"><path d="m-235.36-204.19h915v291h-915v-291z"/></clipPath></defs>
<linearGradient id="j" x1="370.2" x2="409.45" y1="655.09" y2="655.09" gradientTransform="translate(-370.2 -614.57)" gradientUnits="userSpaceOnUse">
	<stop stop-color="#4D4D4D" offset="0"/>
	<stop stop-color="#5F5F5F" offset=".0558"/>
	<stop stop-color="#8D8D8D" offset=".2103"/>
	<stop stop-color="#AEAEAE" offset=".3479"/>
	<stop stop-color="#C2C2C2" offset=".4623"/>
	<stop stop-color="#C9C9C9" offset=".5394"/>
	<stop stop-color="#C5C5C5" offset=".6247"/>
	<stop stop-color="#BABABA" offset=".7072"/>
	<stop stop-color="#A6A6A6" offset=".7885"/>
	<stop stop-color="#8B8B8B" offset=".869"/>
	<stop stop-color="#686868" offset=".9484"/>
	<stop stop-color="#4D4D4D" offset="1"/>
</linearGradient>
<path d="m19.625 37.613c-10.838 0-19.625-1.875-19.625-4.188v10c0 2.313 8.787 4.188 19.625 4.188 10.839 0 19.625-1.875 19.625-4.188v-10c0 2.313-8.786 4.188-19.625 4.188z" fill="url(#j)"/>
<linearGradient id="i" x1="370.2" x2="409.45" y1="649.09" y2="649.09" gradientTransform="translate(-370.2 -614.57)" gradientUnits="userSpaceOnUse">
	<stop stop-color="#B3B3B3" offset="0"/>
	<stop stop-color="#B6B6B6" offset=".0171"/>
	<stop stop-color="#D7D7D7" offset=".235"/>
	<stop stop-color="#EBEBEB" offset=".4168"/>
	<stop stop-color="#F2F2F2" offset=".5394"/>
	<stop stop-color="#eee" offset=".6579"/>
	<stop stop-color="#E3E3E3" offset=".7724"/>
	<stop stop-color="#CFCFCF" offset=".8853"/>
	<stop stop-color="#B4B4B4" offset=".9965"/>
	<stop stop-color="#B3B3B3" offset="1"/>
</linearGradient>
<path d="m19.625 37.613c10.839 0 19.625-1.875 19.625-4.188l-1.229-2c0 2.168-8.235 3.927-18.396 3.927-9.481 0-17.396-1.959-18.396-3.927l-1.229 2c0 2.313 8.787 4.188 19.625 4.188z" fill="url(#i)"/>
<linearGradient id="h" x1="371.43" x2="408.22" y1="646" y2="646" gradientTransform="translate(-370.2 -614.57)" gradientUnits="userSpaceOnUse">
	<stop stop-color="#C9C9C9" offset="0"/>
	<stop stop-color="#808080" offset="1"/>
</linearGradient>
<ellipse cx="19.625" cy="31.425" rx="18.396" ry="3.926" fill="url(#h)"/>
<linearGradient id="g" x1="370.2" x2="409.45" y1="641.09" y2="641.09" gradientTransform="translate(-370.2 -614.57)" gradientUnits="userSpaceOnUse">
	<stop stop-color="#4D4D4D" offset="0"/>
	<stop stop-color="#5F5F5F" offset=".0558"/>
	<stop stop-color="#8D8D8D" offset=".2103"/>
	<stop stop-color="#AEAEAE" offset=".3479"/>
	<stop stop-color="#C2C2C2" offset=".4623"/>
	<stop stop-color="#C9C9C9" offset=".5394"/>
	<stop stop-color="#C5C5C5" offset=".6247"/>
	<stop stop-color="#BABABA" offset=".7072"/>
	<stop stop-color="#A6A6A6" offset=".7885"/>
	<stop stop-color="#8B8B8B" offset=".869"/>
	<stop stop-color="#686868" offset=".9484"/>
	<stop stop-color="#4D4D4D" offset="1"/>
</linearGradient>
<path d="m19.625 23.613c-10.838 0-19.625-1.875-19.625-4.188v10c0 2.313 8.787 4.188 19.625 4.188 10.839 0 19.625-1.875 19.625-4.188v-10c0 2.313-8.786 4.188-19.625 4.188z" fill="url(#g)"/>
<linearGradient id="f" x1="370.2" x2="409.45" y1="635.09" y2="635.09" gradientTransform="translate(-370.2 -614.57)" gradientUnits="userSpaceOnUse">
	<stop stop-color="#B3B3B3" offset="0"/>
	<stop stop-color="#B6B6B6" offset=".0171"/>
	<stop stop-color="#D7D7D7" offset=".235"/>
	<stop stop-color="#EBEBEB" offset=".4168"/>
	<stop stop-color="#F2F2F2" offset=".5394"/>
	<stop stop-color="#eee" offset=".6579"/>
	<stop stop-color="#E3E3E3" offset=".7724"/>
	<stop stop-color="#CFCFCF" offset=".8853"/>
	<stop stop-color="#B4B4B4" offset=".9965"/>
	<stop stop-color="#B3B3B3" offset="1"/>
</linearGradient>
<path d="m19.625 23.613c10.839 0 19.625-1.875 19.625-4.188l-1.229-2c0 2.168-8.235 3.926-18.396 3.926-9.481 0-17.396-1.959-18.396-3.926l-1.229 2c0 2.313 8.787 4.188 19.625 4.188z" fill="url(#f)"/>
<linearGradient id="e" x1="371.43" x2="408.22" y1="632" y2="632" gradientTransform="translate(-370.2 -614.57)" gradientUnits="userSpaceOnUse">
	<stop stop-color="#C9C9C9" offset="0"/>
	<stop stop-color="#808080" offset="1"/>
</linearGradient>
<ellipse cx="19.625" cy="17.426" rx="18.396" ry="3.926" fill="url(#e)"/>
<linearGradient id="d" x1="370.2" x2="409.45" y1="627.59" y2="627.59" gradientTransform="translate(-370.2 -614.57)" gradientUnits="userSpaceOnUse">
	<stop stop-color="#4D4D4D" offset="0"/>
	<stop stop-color="#5F5F5F" offset=".0558"/>
	<stop stop-color="#8D8D8D" offset=".2103"/>
	<stop stop-color="#AEAEAE" offset=".3479"/>
	<stop stop-color="#C2C2C2" offset=".4623"/>
	<stop stop-color="#C9C9C9" offset=".5394"/>
	<stop stop-color="#C5C5C5" offset=".6247"/>
	<stop stop-color="#BABABA" offset=".7072"/>
	<stop stop-color="#A6A6A6" offset=".7885"/>
	<stop stop-color="#8B8B8B" offset=".869"/>
	<stop stop-color="#686868" offset=".9484"/>
	<stop stop-color="#4D4D4D" offset="1"/>
</linearGradient>
<path d="m19.625 10.113c-10.838 0-19.625-1.875-19.625-4.188v10c0 2.313 8.787 4.188 19.625 4.188 10.839 0 19.625-1.875 19.625-4.188v-10c0 2.313-8.786 4.188-19.625 4.188z" fill="url(#d)"/>
<linearGradient id="c" x1="370.2" x2="409.45" y1="621.59" y2="621.59" gradientTransform="translate(-370.2 -614.57)" gradientUnits="userSpaceOnUse">
	<stop stop-color="#B3B3B3" offset="0"/>
	<stop stop-color="#B6B6B6" offset=".0171"/>
	<stop stop-color="#D7D7D7" offset=".235"/>
	<stop stop-color="#EBEBEB" offset=".4168"/>
	<stop stop-color="#F2F2F2" offset=".5394"/>
	<stop stop-color="#eee" offset=".6579"/>
	<stop stop-color="#E3E3E3" offset=".7724"/>
	<stop stop-color="#CFCFCF" offset=".8853"/>
	<stop stop-color="#B4B4B4" offset=".9965"/>
	<stop stop-color="#B3B3B3" offset="1"/>
</linearGradient>
<path d="m19.625 10.113c10.839 0 19.625-1.875 19.625-4.188l-1.229-2c0 2.168-8.235 3.926-18.396 3.926-9.481 0-17.396-1.959-18.396-3.926l-1.229 2c0 2.313 8.787 4.188 19.625 4.188z" fill="url(#c)"/>
<linearGradient id="b" x1="371.43" x2="408.22" y1="618.5" y2="618.5" gradientTransform="translate(-370.2 -614.57)" gradientUnits="userSpaceOnUse">
	<stop stop-color="#C9C9C9" offset="0"/>
	<stop stop-color="#808080" offset="1"/>
</linearGradient>
<ellipse cx="19.625" cy="3.926" rx="18.396" ry="3.926" fill="url(#b)"/>
<path d="m31.291 46.792s-4.313 0.578-7.249 0.694c-3.125 0.127-9.042 0.127-9.042 0.127l-2.443-10.279-0.119-2.283-1.231-1.842-1.418-10.185-0.082-0.119-0.407-2.19-1.45-1.44-2.521-10.482s5.296 0.882 7.234 1.07 8.375 0.25 8.375 0.25l3 9.875-0.25 1.313 1.063 2.168 2.312 9.644-0.375 1.875 1.627 2.193 2.976 9.611z" enable-background="new    " fill="#fff" opacity=".24"/>
</svg>
</g>
</g>
<g transform="matrix(2 0 0 2 470.72 408.39)">
<g clip-path="url(#k)">
<svg width="40px" height="48px" alignment-baseline="auto" clip="auto" clip-path="none" color="rgb(0, 0, 0)" color-interpolation="srgb" color-interpolation-filters="linearrgb" color-profile="auto" color-rendering="auto" cursor="auto" dominant-baseline="auto" enable-background="new 0 0 40 48" flood-color="rgb(0, 0, 0)" font-family='"Arial","Helvetica",sans-serif' font-size="12" font-weight="400" glyph-orientation-vertical="auto" image-rendering="auto" kerning="auto" lighting-color="rgb(255, 255, 255)" overflow="hidden" pointer-events="visiblepainted" shape-rendering="auto" stop-color="rgb(0, 0, 0)" stroke="none" stroke-linecap="butt" stroke-miterlimit="4" text-rendering="auto" src="none" version="1.1" viewBox="0 0 40 48" xml:space="preserve">


<path d="m19.625 37.613c-10.838 0-19.625-1.875-19.625-4.188v10c0 2.313 8.787 4.188 19.625 4.188 10.839 0 19.625-1.875 19.625-4.188v-10c0 2.313-8.786 4.188-19.625 4.188z" fill="url(#j)"/>

<path d="m19.625 37.613c10.839 0 19.625-1.875 19.625-4.188l-1.229-2c0 2.168-8.235 3.927-18.396 3.927-9.481 0-17.396-1.959-18.396-3.927l-1.229 2c0 2.313 8.787 4.188 19.625 4.188z" fill="url(#i)"/>

<ellipse cx="19.625" cy="31.425" rx="18.396" ry="3.926" fill="url(#h)"/>

<path d="m19.625 23.613c-10.838 0-19.625-1.875-19.625-4.188v10c0 2.313 8.787 4.188 19.625 4.188 10.839 0 19.625-1.875 19.625-4.188v-10c0 2.313-8.786 4.188-19.625 4.188z" fill="url(#g)"/>

<path d="m19.625 23.613c10.839 0 19.625-1.875 19.625-4.188l-1.229-2c0 2.168-8.235 3.926-18.396 3.926-9.481 0-17.396-1.959-18.396-3.926l-1.229 2c0 2.313 8.787 4.188 19.625 4.188z" fill="url(#f)"/>

<ellipse cx="19.625" cy="17.426" rx="18.396" ry="3.926" fill="url(#e)"/>

<path d="m19.625 10.113c-10.838 0-19.625-1.875-19.625-4.188v10c0 2.313 8.787 4.188 19.625 4.188 10.839 0 19.625-1.875 19.625-4.188v-10c0 2.313-8.786 4.188-19.625 4.188z" fill="url(#d)"/>

<path d="m19.625 10.113c10.839 0 19.625-1.875 19.625-4.188l-1.229-2c0 2.168-8.235 3.926-18.396 3.926-9.481 0-17.396-1.959-18.396-3.926l-1.229 2c0 2.313 8.787 4.188 19.625 4.188z" fill="url(#c)"/>

<ellipse cx="19.625" cy="3.926" rx="18.396" ry="3.926" fill="url(#b)"/>
<path d="m31.291 46.792s-4.313 0.578-7.249 0.694c-3.125 0.127-9.042 0.127-9.042 0.127l-2.443-10.279-0.119-2.283-1.231-1.842-1.418-10.185-0.082-0.119-0.407-2.19-1.45-1.44-2.521-10.482s5.296 0.882 7.234 1.07 8.375 0.25 8.375 0.25l3 9.875-0.25 1.313 1.063 2.168 2.312 9.644-0.375 1.875 1.627 2.193 2.976 9.611z" enable-background="new    " fill="#fff" opacity=".24"/>
</svg>
</g>
</g>
<g transform="matrix(2,0,0,2,1156,-192)" stroke-linecap="butt" stroke-miterlimit="1.45">
<path d="m-459.55 212.55h43.523" clip-path="url(#a)" fill="none"/>
<path d="m-408.03 212.55-12-5 3 5-3 5z" clip-path="url(#a)" stroke="none"/>
<path d="m-238 212.55h43.523" clip-path="url(#a)" fill="none"/>
<path d="m-186.47 212.55-12-5 3 5-3 5z" clip-path="url(#a)" stroke="none"/>
<path d="m-38.461 182.79 43.635-20.618" clip-path="url(#a)" fill="none"/>
<path d="m12.407 158.75-12.986 0.6059 4.8486 3.2391-0.5763 5.8024z" clip-path="url(#a)" stroke="none"/>
<path d="m-38.461 242.32 43.635 20.618" clip-path="url(#a)" fill="none"/>
<path d="m12.407 266.35-8.7136-9.6474 0.5763 5.8024-4.8486 3.2391z" clip-path="url(#a)" stroke="none"/>
<path d="m98.894 162.21 56.403 37.458" clip-path="url(#a)" fill="none"/>
<path d="m161.96 204.1-7.2301-10.804-0.2671 5.8248-5.2652 2.5054z" clip-path="url(#a)" stroke="none"/>
<path d="m108.87 267.1 36.588-16.206" clip-path="url(#a)" fill="none"/>
<path d="m152.77 247.65-12.997 0.2883 4.7679 3.3567-0.718 5.7865z" clip-path="url(#a)" stroke="none"/>
<path d="m108.87 310.48 36.588 16.206" clip-path="url(#a)" fill="none"/>
<path d="m152.77 329.93-8.9469-9.4315 0.718 5.7865-4.7679 3.3567z" clip-path="url(#a)" stroke="none"/>
<path d="m237.72 249.82 44.279 24.331" clip-path="url(#a)" fill="none"/>
<path d="m289.01 278-8.1089-10.161 0.2213 5.8268-5.0371 2.9372z" clip-path="url(#a)" stroke="none"/>
<path d="m237.72 327.77 44.279-24.331" clip-path="url(#a)" fill="none"/>
<path d="m289.01 299.58-12.925 1.3969 5.0371 2.9373-0.2213 5.8268z" clip-path="url(#a)" stroke="none"/>
<path d="m-323.01 256.88v35.294" clip-path="url(#a)" fill="none"/>
<path d="m-323.01 300.17 5-12-5 3-5-3z" clip-path="url(#a)" stroke="none"/>
</g>
</g>
</svg>
