<svg xmlns="http://www.w3.org/2000/svg" xmlns:xlink="http://www.w3.org/1999/xlink" color-interpolation="auto" fill="black" font-family="Dialog" font-size="12" stroke="black" stroke-linecap="square" stroke-miterlimit="10" text-rendering="auto" viewBox="0 0 1830 582">
<style><![CDATA[.M{clip-path:url(#A)}.N{stroke:none}.O{fill:none}.P{stroke-linecap:butt}.Q{stroke-miterlimit:1.45}.R{fill:#fff}.S{fill:#5469c9}.T{font-family:sans-serif}.U{font-size:13px}.V{font-weight:bold}.W{stroke:#5469c9}.X{text-rendering:auto}]]></style>
<g shape-rendering="geometricPrecision" text-rendering="geometricPrecision">
<ellipse cx="-514.55" cy="212.55" rx="55" ry="25" transform="matrix(2 0 0 2 1156 -192)" class="M N S"/>
<text x="-542.713" y="217.659" xml:space="preserve" transform="matrix(2 0 0 2 1156 -192)" class="M N R T U V">Web App</text>
<g transform="matrix(2 0 0 2 1156 -192)">
<g class="S W">
<ellipse cx="-514.55" cy="212.55" rx="55" ry="25" class="M O"/>
<ellipse cx="-323.01" cy="212.55" rx="85.016" ry="44.328" class="M N"/>
</g>
<g class="N R T U V">
<text x="-382.963" y="209.696" xml:space="preserve" class="M">Confront username</text>
<text x="-366.716" y="225.622" xml:space="preserve" class="M">and password</text>
</g>
<g class="S W">
<ellipse cx="-323.01" cy="212.55" rx="85.016" ry="44.328" class="M O"/>
<ellipse cx="-101.46" cy="212.55" rx="85.016" ry="44.328" class="M N"/>
</g>
</g>
<text x="-162.135" y="217.659" xml:space="preserve" transform="matrix(2 0 0 2 1156 -192)" class="M N R T U V">User authentication</text>
<g transform="matrix(2 0 0 2 1156 -192)" class="S W">
<ellipse cx="-101.46" cy="212.55" rx="85.016" ry="44.328" class="M O"/>
<ellipse cx="59.892" cy="136.31" rx="66.776" ry="31.912" class="M N"/>
</g>
<text x="43.997" y="141.419" xml:space="preserve" transform="matrix(2 0 0 2 1156 -192)" class="M N R T U V">Read</text>
<g transform="matrix(2 0 0 2 1156 -192)" class="S W">
<ellipse cx="59.892" cy="136.31" rx="66.776" ry="31.912" class="M O"/>
<ellipse cx="59.892" cy="288.79" rx="66.776" ry="31.912" class="M N"/>
</g>
<text x="12.579" y="293.899" xml:space="preserve" transform="matrix(2 0 0 2 1156 -192)" class="M N R T U V">Read and Write</text>
<g transform="matrix(2 0 0 2 1156 -192)" class="S W">
<ellipse cx="59.892" cy="288.79" rx="66.776" ry="31.912" class="M O"/>
<ellipse cx="197.62" cy="227.78" rx="61.4" ry="29.096" class="M N"/>
</g>
<text x="157.879" y="232.891" xml:space="preserve" transform="matrix(2 0 0 2 1156 -192)" class="M N R T U V">Receive data</text>
<g transform="matrix(2 0 0 2 1156 -192)" class="S W">
<ellipse cx="197.62" cy="227.78" rx="61.4" ry="29.096" class="M O"/>
<ellipse cx="197.62" cy="349.8" rx="61.4" ry="29.096" class="M N"/>
</g>
<text x="161.513" y="354.907" xml:space="preserve" transform="matrix(2 0 0 2 1156 -192)" class="M N R T U V">Modify data</text>
<ellipse cx="197.62" cy="349.8" rx="61.4" ry="29.096" transform="matrix(2 0 0 2 1156 -192)" class="M O W"/>
<g font-family="&quot;Arial&quot;,&quot;Helvetica&quot;,sans-serif" alignment-baseline="auto" color-interpolation="srgb" color-interpolation-filters="linearrgb" color-profile="auto" dominant-baseline="auto" glyph-orientation-vertical="auto" lighting-color="rgb(255, 255, 255)" pointer-events="visiblepainted" class="N X">
<g transform="matrix(2 0 0 2 1734 337.97)" clip="auto" clip-path="url(#B)" cursor="auto" flood-color="#000" kerning="auto" xml:space="preserve">
<defs><clipPath id="A">
<path d="M-578 96h915v291h-915V96z"/>
</clipPath>
<clipPath id="B">
<path d="m-867.02-168.99h915v291h-915v-291z"/>
</clipPath>
<clipPath id="C">
<path d="m-235.36-204.19h915v291h-915v-291z"/>
</clipPath>
<path id="D" d="M31.291 46.792l-7.249.694-9.042.127-2.443-10.279-.119-2.283-1.231-1.842-1.418-10.185-.082-.119-.407-2.19-1.45-1.44L5.329 8.793l7.234 1.07c1.938.188 8.375.25 8.375.25l3 9.875-.25 1.313 1.063 2.168 2.312 9.644-.375 1.875 1.627 2.193 2.976 9.611z"/>
</defs>
<linearGradient id="E" x1="0" x2="39.25" y1="40.52" y2="40.52" gradientUnits="userSpaceOnUse">
<stop stop-color="#4d4d4d" offset="0"/>
<stop stop-color="#5f5f5f" offset=".056"/>
<stop stop-color="#8d8d8d" offset=".21"/>
<stop stop-color="#aeaeae" offset=".348"/>
<stop stop-color="#c2c2c2" offset=".462"/>
<stop stop-color="#c9c9c9" offset=".539"/>
<stop stop-color="#c5c5c5" offset=".625"/>
<stop stop-color="#bababa" offset=".707"/>
<stop stop-color="#a6a6a6" offset=".789"/>
<stop stop-color="#8b8b8b" offset=".869"/>
<stop stop-color="#686868" offset=".948"/>
<stop stop-color="#4d4d4d" offset="1"/>
</linearGradient><path d="M19.625 37.613C8.787 37.613 0 35.738 0 33.425v10c0 2.313 8.787 4.188 19.625 4.188s19.625-1.875 19.625-4.188v-10c0 2.313-8.786 4.188-19.625 4.188z" fill="url(#E)"/>
<linearGradient id="F" x1="0" x2="39.25" y1="34.52" y2="34.52" gradientUnits="userSpaceOnUse">
<stop stop-color="#b3b3b3" offset="0"/>
<stop stop-color="#b6b6b6" offset=".017"/>
<stop stop-color="#d7d7d7" offset=".235"/>
<stop stop-color="#ebebeb" offset=".417"/>
<stop stop-color="#f2f2f2" offset=".539"/>
<stop stop-color="#eee" offset=".658"/>
<stop stop-color="#e3e3e3" offset=".772"/>
<stop stop-color="#cfcfcf" offset=".885"/>
<stop stop-color="#b4b4b4" offset=".997"/>
<stop stop-color="#b3b3b3" offset="1"/>
</linearGradient>
<path d="m19.625 37.613c10.839 0 19.625-1.875 19.625-4.188l-1.229-2c0 2.168-8.235 3.927-18.396 3.927-9.481 0-17.396-1.959-18.396-3.927l-1.229 2c0 2.313 8.787 4.188 19.625 4.188z" fill="url(#F)"/>
<linearGradient id="G" x1="1.23" x2="38.02" y1="31.43" y2="31.43" gradientUnits="userSpaceOnUse">
<stop stop-color="#c9c9c9" offset="0"/>
<stop stop-color="gray" offset="1"/>
</linearGradient><ellipse cx="19.625" cy="31.425" rx="18.396" ry="3.926" fill="url(#G)"/>
<linearGradient id="H" x1="0" x2="39.25" y1="26.52" y2="26.52" gradientUnits="userSpaceOnUse">
<stop stop-color="#4d4d4d" offset="0"/>
<stop stop-color="#5f5f5f" offset=".056"/>
<stop stop-color="#8d8d8d" offset=".21"/>
<stop stop-color="#aeaeae" offset=".348"/>
<stop stop-color="#c2c2c2" offset=".462"/>
<stop stop-color="#c9c9c9" offset=".539"/>
<stop stop-color="#c5c5c5" offset=".625"/>
<stop stop-color="#bababa" offset=".707"/>
<stop stop-color="#a6a6a6" offset=".789"/>
<stop stop-color="#8b8b8b" offset=".869"/>
<stop stop-color="#686868" offset=".948"/>
<stop stop-color="#4d4d4d" offset="1"/>
</linearGradient><path d="M19.625 23.613C8.787 23.613 0 21.738 0 19.425v10c0 2.313 8.787 4.188 19.625 4.188s19.625-1.875 19.625-4.188v-10c0 2.313-8.786 4.188-19.625 4.188z" fill="url(#H)"/>
<linearGradient id="I" x1="0" x2="39.25" y1="20.52" y2="20.52" gradientUnits="userSpaceOnUse">
<stop stop-color="#b3b3b3" offset="0"/>
<stop stop-color="#b6b6b6" offset=".017"/>
<stop stop-color="#d7d7d7" offset=".235"/>
<stop stop-color="#ebebeb" offset=".417"/>
<stop stop-color="#f2f2f2" offset=".539"/>
<stop stop-color="#eee" offset=".658"/>
<stop stop-color="#e3e3e3" offset=".772"/>
<stop stop-color="#cfcfcf" offset=".885"/>
<stop stop-color="#b4b4b4" offset=".997"/>
<stop stop-color="#b3b3b3" offset="1"/>
</linearGradient><path d="m19.625 23.613c10.839 0 19.625-1.875 19.625-4.188l-1.229-2c0 2.168-8.235 3.926-18.396 3.926-9.481 0-17.396-1.959-18.396-3.926l-1.229 2c0 2.313 8.787 4.188 19.625 4.188z" fill="url(#I)"/>
<linearGradient id="J" x1="1.23" x2="38.02" y1="17.43" y2="17.43" gradientUnits="userSpaceOnUse">
<stop stop-color="#c9c9c9" offset="0"/>
<stop stop-color="gray" offset="1"/>
</linearGradient><ellipse cx="19.625" cy="17.426" rx="18.396" ry="3.926" fill="url(#J)"/>
<linearGradient id="K" x1="0" x2="39.25" y1="13.02" y2="13.02" gradientUnits="userSpaceOnUse">
<stop stop-color="#4d4d4d" offset="0"/>
<stop stop-color="#5f5f5f" offset=".056"/>
<stop stop-color="#8d8d8d" offset=".21"/>
<stop stop-color="#aeaeae" offset=".348"/>
<stop stop-color="#c2c2c2" offset=".462"/>
<stop stop-color="#c9c9c9" offset=".539"/>
<stop stop-color="#c5c5c5" offset=".625"/>
<stop stop-color="#bababa" offset=".707"/>
<stop stop-color="#a6a6a6" offset=".789"/>
<stop stop-color="#8b8b8b" offset=".869"/>
<stop stop-color="#686868" offset=".948"/>
<stop stop-color="#4d4d4d" offset="1"/>
</linearGradient><path d="M19.625 10.113C8.787 10.113 0 8.238 0 5.925v10c0 2.313 8.787 4.188 19.625 4.188s19.625-1.875 19.625-4.188v-10c0 2.313-8.786 4.188-19.625 4.188z" fill="url(#K)"/>
<linearGradient id="L" x1="0" x2="39.25" y1="7.02" y2="7.02" gradientUnits="userSpaceOnUse">
<stop stop-color="#b3b3b3" offset="0"/>
<stop stop-color="#b6b6b6" offset=".017"/>
<stop stop-color="#d7d7d7" offset=".235"/>
<stop stop-color="#ebebeb" offset=".417"/>
<stop stop-color="#f2f2f2" offset=".539"/>
<stop stop-color="#eee" offset=".658"/>
<stop stop-color="#e3e3e3" offset=".772"/>
<stop stop-color="#cfcfcf" offset=".885"/>
<stop stop-color="#b4b4b4" offset=".997"/>
<stop stop-color="#b3b3b3" offset="1"/>
</linearGradient>
<path d="M19.625 10.113c10.839 0 19.625-1.875 19.625-4.188l-1.229-2c0 2.168-8.235 3.926-18.396 3.926-9.481 0-17.396-1.959-18.396-3.926L0 5.925c0 2.313 8.787 4.188 19.625 4.188z" fill="url(#L)"/>
<linearGradient id="M" x1="1.23" x2="38.02" y1="3.93" y2="3.93" gradientUnits="userSpaceOnUse">
<stop stop-color="#c9c9c9" offset="0"/>
<stop stop-color="gray" offset="1"/>
</linearGradient>
<ellipse cx="19.625" cy="3.926" rx="18.396" ry="3.926" fill="url(#M)"/>
<use xlink:href="#D" opacity=".24" class="R"/>
</g>
<g transform="matrix(2 0 0 2 470.72 408.39)" clip-path="url(#C)" clip="auto" cursor="auto" flood-color="#000" kerning="auto" xml:space="preserve">
<path d="M19.625 37.613C8.787 37.613 0 35.738 0 33.425v10c0 2.313 8.787 4.188 19.625 4.188s19.625-1.875 19.625-4.188v-10c0 2.313-8.786 4.188-19.625 4.188z" fill="url(#E)"/>
<path d="m19.625 37.613c10.839 0 19.625-1.875 19.625-4.188l-1.229-2c0 2.168-8.235 3.927-18.396 3.927-9.481 0-17.396-1.959-18.396-3.927l-1.229 2c0 2.313 8.787 4.188 19.625 4.188z" fill="url(#F)"/>
<ellipse cx="19.625" cy="31.425" rx="18.396" ry="3.926" fill="url(#G)"/>
<path d="M19.625 23.613C8.787 23.613 0 21.738 0 19.425v10c0 2.313 8.787 4.188 19.625 4.188s19.625-1.875 19.625-4.188v-10c0 2.313-8.786 4.188-19.625 4.188z" fill="url(#H)"/>
<path d="m19.625 23.613c10.839 0 19.625-1.875 19.625-4.188l-1.229-2c0 2.168-8.235 3.926-18.396 3.926-9.481 0-17.396-1.959-18.396-3.926l-1.229 2c0 2.313 8.787 4.188 19.625 4.188z" fill="url(#I)"/>
<ellipse cx="19.625" cy="17.426" rx="18.396" ry="3.926" fill="url(#J)"/>
<path d="M19.625 10.113C8.787 10.113 0 8.238 0 5.925v10c0 2.313 8.787 4.188 19.625 4.188s19.625-1.875 19.625-4.188v-10c0 2.313-8.786 4.188-19.625 4.188z" fill="url(#K)"/>
<path d="M19.625 10.113c10.839 0 19.625-1.875 19.625-4.188l-1.229-2c0 2.168-8.235 3.926-18.396 3.926-9.481 0-17.396-1.959-18.396-3.926L0 5.925c0 2.313 8.787 4.188 19.625 4.188z" fill="url(#L)"/>
<ellipse cx="19.625" cy="3.926" rx="18.396" ry="3.926" fill="url(#M)"/>
<use xlink:href="#D" opacity=".24" class="R"/>
</g>
</g>
<g transform="matrix(2 0 0 2 1156 -192)">
<path d="m-459.55 212.55h43.523" class="M O P Q"/>
<path d="m-408.03 212.55-12-5 3 5-3 5z" class="M N"/>
<path d="m-238 212.55h43.523" class="M O P Q"/>
<path d="m-186.47 212.55-12-5 3 5-3 5z" class="M N"/>
<path d="m-38.461 182.79 43.635-20.618" class="M O P Q"/>
<path d="M12.407 158.75l-12.986.606 4.849 3.239-.576 5.802z" class="M N"/>
<path d="m-38.461 242.32 43.635 20.618" class="M O P Q"/>
<path d="M12.407 266.35l-8.714-9.647.576 5.802-4.849 3.239z" class="M N"/>
<path d="m98.894 162.21 56.403 37.458" class="M O P Q"/>
<path d="M161.96 204.1l-7.23-10.804-.267 5.825-5.265 2.505z" class="M N"/>
<path d="m108.87 267.1 36.588-16.206" class="M O P Q"/>
<path d="M152.77 247.65l-12.997.288 4.768 3.357-.718 5.787z" class="M N"/>
<path d="m108.87 310.48 36.588 16.206" class="M O P Q"/>
<path d="M152.77 329.93l-8.947-9.431.718 5.786-4.768 3.357z" class="M N"/>
<path d="m237.72 249.82 44.279 24.331" class="M O P Q"/>
<path d="M289.01 278l-8.109-10.161.221 5.827-5.037 2.937z" class="M N"/>
<path d="m237.72 327.77 44.279-24.331" class="M O P Q"/>
<path d="M289.01 299.58l-12.925 1.397 5.037 2.937-.221 5.827z" class="M N"/>
<path d="m-323.01 256.88v35.294" class="M O P Q"/>
<path d="m-323.01 300.17 5-12-5 3-5-3z" class="M N"/>
</g>
</g>
</svg>