<?xml version="1.0" encoding="UTF-8" standalone="no"?>
<svg
   xmlns:dc="http://purl.org/dc/elements/1.1/"
   xmlns:cc="http://creativecommons.org/ns#"
   xmlns:rdf="http://www.w3.org/1999/02/22-rdf-syntax-ns#"
   xmlns:svg="http://www.w3.org/2000/svg"
   xmlns="http://www.w3.org/2000/svg"
   xmlns:sodipodi="http://sodipodi.sourceforge.net/DTD/sodipodi-0.dtd"
   xmlns:inkscape="http://www.inkscape.org/namespaces/inkscape"
   width="24"
   height="24"
   preserveAspectRatio="xMidYMid meet"
   viewBox="0 0 24 24"
   style="-ms-transform: rotate(360deg); -webkit-transform: rotate(360deg); transform: rotate(360deg);"
   version="1.1"
   id="svg6"
   sodipodi:docname="bxl-twitter.svg"
   inkscape:version="0.92.4 (5da689c313, 2019-01-14)">
  <metadata
     id="metadata12">
    <rdf:RDF>
      <cc:Work
         rdf:about="">
        <dc:format>image/svg+xml</dc:format>
        <dc:type
           rdf:resource="http://purl.org/dc/dcmitype/StillImage" />
      </cc:Work>
    </rdf:RDF>
  </metadata>
  <defs
     id="defs10" />
  <sodipodi:namedview
     pagecolor="#ffffff"
     bordercolor="#666666"
     borderopacity="1"
     objecttolerance="10"
     gridtolerance="10"
     guidetolerance="10"
     inkscape:pageopacity="0"
     inkscape:pageshadow="2"
     inkscape:window-width="724"
     inkscape:window-height="480"
     id="namedview8"
     showgrid="false"
     inkscape:zoom="9.8333333"
     inkscape:cx="12"
     inkscape:cy="12"
     inkscape:window-x="0"
     inkscape:window-y="0"
     inkscape:window-maximized="0"
     inkscape:current-layer="svg6" />
  <path
     d="M19.633 7.997c.013.175.013.349.013.523c0 5.325-4.053 11.461-11.46 11.461c-2.282 0-4.402-.661-6.186-1.809c.324.037.636.05.973.05a8.07 8.07 0 0 0 5.001-1.721a4.036 4.036 0 0 1-3.767-2.793c.249.037.499.062.761.062c.361 0 .724-.05 1.061-.137a4.027 4.027 0 0 1-3.23-3.953v-.05c.537.299 1.16.486 1.82.511a4.022 4.022 0 0 1-1.796-3.354c0-.748.199-1.434.548-2.032a11.457 11.457 0 0 0 8.306 4.215c-.062-.3-.1-.611-.1-.923a4.026 4.026 0 0 1 4.028-4.028c1.16 0 2.207.486 2.943 1.272a7.957 7.957 0 0 0 2.556-.973a4.02 4.02 0 0 1-1.771 2.22a8.073 8.073 0 0 0 2.319-.624a8.645 8.645 0 0 1-2.019 2.083z"
     fill="#5469C9"
     id="path2" />
</svg>
