<?xml version="1.0" encoding="UTF-8"?>
<svg version="1.1" viewBox="0 0 24 20" xmlns="http://www.w3.org/2000/svg">
<title>Shape</title>
<desc>Created with Sketch.</desc>
<g fill="none" fill-rule="evenodd">
<g fill="#fff" fill-rule="nonzero">
<path d="m23.357 2.9787h-22.714c-0.35502 0-0.64286-0.2858-0.64286-0.6383v-1.7021c0-0.3525 0.28784-0.6383 0.64286-0.6383h22.714c0.35502 0 0.64286 0.2858 0.64286 0.6383v1.7021c0 0.3525-0.28784 0.6383-0.64286 0.6383zm0 8.5106h-22.714c-0.35502 0-0.64286-0.2858-0.64286-0.6383v-1.7021c0-0.3525 0.28784-0.6383 0.64286-0.6383h22.714c0.35502 0 0.64286 0.2858 0.64286 0.6383v1.7021c0 0.3525-0.28784 0.6383-0.64286 0.6383zm0 8.5106h-22.714c-0.35502 0-0.64286-0.2858-0.64286-0.6383v-1.7021c0-0.3525 0.28784-0.6383 0.64286-0.6383h22.714c0.35502 0 0.64286 0.2858 0.64286 0.6383v1.7021c0 0.3525-0.28784 0.6383-0.64286 0.6383z"/>
</g>
</g>
</svg>
