<svg xmlns="http://www.w3.org/2000/svg" xmlns:xlink="http://www.w3.org/1999/xlink" width="680" height="370" viewBox="0 0 179.91 97.897">
<defs>
<linearGradient id="A" gradientUnits="userSpaceOnUse">
<stop stop-color="#4155b1" offset="0"/>
<stop stop-color="#b4b9d2" offset="1"/>
</linearGradient>
<linearGradient id="B" x1="47.193" x2="29.665" y1="19.978" y2="44.49" gradientUnits="userSpaceOnUse">
<stop stop-color="#5469c9" offset="0"/>
<stop stop-color="#5469c9" stop-opacity="0" offset="1"/>
</linearGradient>
<linearGradient id="C" x1="20.147" x2="43.275" y1="54.358" y2="21.642" href="#A"/>
<linearGradient id="D" x1="68.501" x2="74.465" y1="59.82" y2="13.674" href="#A"/>
<radialGradient id="E" cx="7.307" cy="5.198" r="11.597" gradientTransform="matrix(-9.1 0 0 -4.4 153 38)" gradientUnits="userSpaceOnUse">
<stop stop-color="#fff" offset="0"/>
<stop offset="1"/>
</radialGradient>
</defs>
<a href="#F" transform="scale(1.7)">
<rect x="1.597" y="1.597" width="102.64" height="54.348" rx="2.868" ry="2.866" fill="#4d4d4d"/>
<g>
<set attributeName="opacity" to="0" dur="2s"/>
<animateTransform attributeName="transform" attributeType="XML" type="translate" from="40 40" to="0 0" id="F" begin="2s;F.begin" dur="0.5s" repeatCount="1"/>
<g fill="#333">
<animate attributeName="fill" values="#fff;#757690;#333" begin="F.begin" dur="1s" repeatCount="1"/>
<path d="M9.24 47.875l22.601 6.472 69.367.025c.687 0 1.441-.398 1.422-1.533V26.865L28.549 9.241z" opacity=".5" style="mix-blend-mode:color-dodge"/>
<path d="M36.902 19.325l65.721 15.24.007 18.128c0 .739-.059 1.685-1.581 1.683l-26.603-.035-26.581-6.467z" opacity=".5" style="mix-blend-mode:exclusion"/>
</g>
<g>
<animate attributeName="opacity" values="0;1" begin="F.begin" dur="1s" repeatCount="1"/>
<path d="M11.624 46.4l16.853-33.727 5.746 12.747 2.268-3.062 9.233 24.043z" fill="#fff" stroke="url(#C)" stroke-width="2.94"/>
<path d="M9.24 47.874l19.189-27.927 5.277 11.346 2.196-3.019 11.969 19.602z" fill="#5469c9"/>
<path d="M21.037 47.873l6.616-17.447-.899-.705 2.101-2.231-1.846.447 2.251-2.479-.83-5.51 5.277 11.346 2.196-3.019 11.969 19.602z" fill="url(#B)" style="mix-blend-mode:screen"/>
</g>
</g>
<g fill="url(#D)">
<set attributeName="opacity" to="0" begin="0s;F.begin"/>
<animateTransform attributeName="transform" attributeType="XML" type="translate" from="0 -3" to="0 0" begin="F.end+1.5s" dur="1.8s" repeatCount="1" fill="freeze"/>
<animate attributeName="opacity" values="0;1" begin="F.end+1.5s" dur="1.8s" repeatCount="1" fill="freeze"/>
<path d="M58.879 40.763q0 2.146-1.574 3.668-1.533 1.482-3.617 1.482-2.197 0-3.709-1.522-1.502-1.533-1.502-3.73 0-2.136 1.533-3.648 1.543-1.522 3.699-1.522 2.166 0 3.668 1.543 1.502 1.543 1.502 3.73zm-.879.45q0-1.686-1.553-3.208-1.604-1.574-3.515-1.574-1.492 0-2.534 1.022-1.042 1.022-1.042 2.411 0 2.013 1.584 3.576 1.553 1.533 3.423 1.533 1.482 0 2.514-.96Q58 42.96 58 41.213z"/>
<path d="M69.649 39.312q0 1.512-.531 2.902-.531 1.379-1.573 2.554.031 0 .102.01.082 0 .215 0 .317 0 .593-.031.276-.041.542-.215.266-.215.347-.276.02-.02.061-.031.031-.01.041-.01.112 0 .061.184-.02.153-.041.368-.02.215-.02.286 0 .153.01.327.01.163.031.347.041.204-.082.204-.051 0-.102-.041-.307-.174-.429-.225-.235-.092-.45-.123-.204-.031-.644-.031-.296 0-.47.01-.174.01-.46.061-.296.051-.296-.184 0-.072.031-.123.552-.858.858-1.42.48-.889.715-1.655.286-.94.286-1.911 0-1.604-.715-2.605-.746-1.052-2.023-1.052-.858 0-1.543.48-.613.429-1.012 1.196v6.274q0 .184.225.378.194.163.388.317.112.112.112.204 0 .102-.174.102-.051 0-.46-.031-.409-.031-.746-.031-.388 0-.623.02-.225.02-.521.041-.245 0-.245-.112 0-.072.092-.174.092-.102.296-.266.347-.266.347-.45v-6.049q0-.869-.521-1.41-.225-.235-.787-.531-.082-.041-.082-.112 0-.072.061-.133.133-.123.225-.194.092-.082.235-.225.143-.143.225-.235.082-.092.153-.184.041-.051.112-.051.061 0 .092.031.368.296.777.828.562.725.654 1.257.45-.736 1.093-1.277.96-.807 1.952-.807 1.839 0 2.83 1.379.787 1.093.787 2.442z"/>
<path d="M76.188 36.308q0 .163-.143.163-.051 0-.501-.02-.45-.02-.848-.02v6.764q0 .725.409 1.236.112.143.593.542.082.061.082.143 0 .051-.082.112-.082.051-.184.112-.133.102-.204.163-.286.255-.368.368-.082.082-.163.082-.072 0-.143-.041-.439-.245-.777-.838-.47-.828-.47-1.982v-6.662q-.327 0-.623.02-.296.01-.603.02-.143 0-.143-.163v-.327q0-.163.184-.163.051 0 .45.02.398.02.736.02v-.777q0-.593-.255-.664-.174-.02-.235-.031-.143 0-.143-.143 0-.061.061-.123.225-.194.46-.409.235-.225.521-.511.327-.337.501-.562.184-.225.358-.439.031-.051.082-.051.082 0 .082.153-.031.266-.061.531-.061.644-.061 1.328v1.696q.337 0 .664-.01.327-.01.685-.031.143 0 .143.143z"/>
<path d="M87.387 43.42q-.266.869-1.277 1.625-1.185.889-2.585.889-.899 0-1.594-.194-.797-.225-1.512-.766-.286.358-.521.777-.296.521-.296.756 0 .286.153.398.102.072.337.072.072 0 .143-.02.061-.02.123-.041.041-.02.072 0 .072.041.031.163-.061.245-.245.45-.245.266-.572.266-.347 0-.572-.255-.225-.255-.225-.664 0-.327.225-.797.061-.133.879-1.451-.756-.777-1.165-1.686-.45-1.012-.45-2.176 0-2.146 1.39-3.709 1.4-1.563 3.474-1.563.828 0 1.696.398.48.235.96.46.092.041.266.061.174.02.347.02l.307-.02q.112 0 .112.092 0 .072-.072.112-.163.102-.358.276-.266.225-.46.46-.991 1.103-2.299 2.892-1.308 1.788-2.463 3.586.603.429 1.226.664.736.276 1.533.276 1.103 0 1.819-.419.521-.307 1.165-1.093.061-.092.143-.194.082-.112.184-.092.133.031.133.194 0 .123-.051.255zm-2.8-6.029q0-.603-.654-.94-.552-.286-1.328-.286-1.451 0-2.391 1.236-.879 1.165-.879 2.769 0 .95.46 1.901.388.807.971 1.369.695-1.032 1.083-1.604.623-.92 1.063-1.543.562-.797 1.124-1.594.552-.858.552-1.308z"/>
<path d="M96.746 42.296q0 1.614-1.4 2.646-1.308.971-3.116.971-1.533 0-2.544-.501-1.236-.613-1.236-1.809 0-.909.664-1.533.674-.633 1.604-.633.96 0 1.563.347.685.398.685 1.124 0 .46-.337.807-.327.337-.787.337-.439 0-.633-.163-.051-.051-.051-.082 0-.072.133-.102.174-.061.286-.215.123-.153.123-.48 0-.296-.317-.48-.317-.194-.685-.194-.725 0-1.226.347-.49.347-.49.96 0 .858 1.093 1.328.909.388 2.156.388 1.298 0 2.268-.582 1.144-.685 1.144-1.849 0-1.165-.838-1.727-.521-.347-1.982-.705-.838-.184-1.665-.378-.94-.255-1.379-.664-.572-.531-.572-1.492 0-1.093 1.155-1.809 1.063-.664 2.442-.664 1.247 0 2.013.317 1.012.419 1.012 1.298 0 .562-.542.93-.501.337-1.155.337-.623 0-1.042-.235-.511-.286-.511-.817 0-.276.184-.48.194-.215.429-.286.102-.02.112-.02.072 0 .072.102l-.02.204q0 .225.143.368.184.184.593.184.266 0 .46-.184.194-.184.194-.429 0-.46-.664-.654-.49-.143-1.277-.143-.981 0-1.768.439-.869.49-.869 1.216 0 .654.572 1.022.358.235 2.289.674 1.195.276 1.839.531.899.358 1.349.879.531.613.531 1.553z"/>
</g>
<rect x="1.597" y="1.597" width="102.64" height="54.348" rx="2.868" ry="2.866" fill="none" stroke="url(#E)" stroke-dashoffset="259.48" stroke-linejoin="round" stroke-width="3.19"/>
</a>
</svg>