<?xml version="1.0" encoding="UTF-8"?>
<svg width="680" height="370" version="1.1" viewBox="0 0 179.91 97.897" xmlns="http://www.w3.org/2000/svg" xmlns:cc="http://creativecommons.org/ns#" xmlns:dc="http://purl.org/dc/elements/1.1/" xmlns:rdf="http://www.w3.org/1999/02/22-rdf-syntax-ns#" xmlns:xlink="http://www.w3.org/1999/xlink">
<defs>
<linearGradient id="f">
<stop stop-color="#4155b1" offset="0"/>
<stop stop-color="#b4b9d2" offset="1"/>
</linearGradient>
<linearGradient id="i" x1="8.4428" x2="4.5477" y1="2.3952" y2="7.8422" gradientTransform="matrix(4.564 0 0 4.5566 9.2367 9.2687)" gradientUnits="userSpaceOnUse">
<stop stop-color="#5469c9" offset="0"/>
<stop stop-color="#5469c9" stop-opacity="0" offset="1"/>
</linearGradient>
<radialGradient id="j" cx="7.307" cy="5.1975" r="11.597" gradientTransform="matrix(-9.1176 -.019485 .0095211 -4.4496 153.65 37.949)" gradientUnits="userSpaceOnUse">
<stop stop-color="#fff" offset="0"/>
<stop offset="1"/>
</radialGradient>
<linearGradient id="h" x1="60.147" x2="83.275" y1="55.208" y2="22.492" gradientTransform="matrix(1.0002 0 0 .99959 -39.935 -.85276)" gradientUnits="userSpaceOnUse" xlink:href="#f"/>
<linearGradient id="g" x1="68.501" x2="74.465" y1="59.82" y2="13.674" gradientTransform="matrix(1.0002 0 0 .99959 .00015499 .00014524)" gradientUnits="userSpaceOnUse" xlink:href="#f"/>
</defs>
<metadata>
<rdf:RDF>
<cc:Work rdf:about="">
<dc:format>image/svg+xml</dc:format>
<dc:type rdf:resource="http://purl.org/dc/dcmitype/StillImage"/>
<dc:title/>
</cc:Work>
</rdf:RDF>
</metadata>
<g transform="matrix(1.7 0 0 1.7013 -.0036564 -.00016215)" opacity=".998">
<rect x="1.597" y="1.597" width="102.64" height="54.348" rx="2.8679" ry="2.8661" fill="#4d4d4d" opacity="1" stroke="url(#j)" stroke-dashoffset="259.48" stroke-linecap="round" stroke-linejoin="round" stroke-width="3.1938"/>
<path d="m9.2398 47.875 22.601 6.4716 69.367 0.0251c0.68665 2.51e-4 1.4406-0.39775 1.4217-1.5326l-3.7e-4 -25.974-74.08-17.624z" fill="#333" opacity=".5" stroke-width=".99969" style="mix-blend-mode:color-dodge"/>
<path d="m36.902 19.325 65.721 15.24 7e-3 18.128c2.9e-4 0.73888-0.059 1.6851-1.5811 1.6832l-26.603-0.03468-26.581-6.4666z" fill="#1a1a1a" opacity=".8" stroke-width=".99969" style="mix-blend-mode:exclusion"/>
<path d="m11.624 46.4 16.853-33.727 5.7463 12.747 2.2676-3.0616 9.2333 24.043z" fill="#fff" opacity="1" stroke="url(#h)" stroke-width="2.9474"/>
<path d="m9.2401 47.874 19.189-27.927 5.277 11.346 2.1958-3.019 11.969 19.602z" fill="#5469c9" stroke-width=".99969"/>
<path d="m21.037 47.873 6.616-17.447-0.89905-0.70537 2.1006-2.2307-1.8462 0.44723 2.251-2.4795-0.83031-5.5103 5.277 11.346 2.1958-3.019 11.969 19.602z" fill="url(#i)" opacity="1" stroke-width=".99969" style="mix-blend-mode:screen"/>
<text x="47.721169" y="45.585686" fill="url(#g)" font-family="sans-serif" font-size="20.926px" letter-spacing="0px" stroke-width="1.2072" word-spacing="0px" style="line-height:1.25" xml:space="preserve"><tspan x="47.721169" y="45.585686" fill="url(#g)" font-family="Harrington" stroke-width="1.2072">ontes</tspan></text>
</g>
</svg>
